# xmcd
#
# Track frame offsets:
#	150
#	18241
#	36785
#	57016
#	75513
#	97229
#	123576
#	141927
#	163764
#	179851
#	203339
#	226583
#
# Disc length: 3360 seconds
#
# Revision: 6
# Processed by: cddbd v1.5.1PL0 Copyright (c) Steve Scherf et al.
# Submitted via: MusicManager 7.0.3.0 
#
DISCID=990d1e0c
DTITLE=Krall, Diana - The Girl In The Other Room
DYEAR=2004
DGENRE=Jazz
TTITLE0=Stop this world
TTITLE1=The girl in the other room
TTITLE2=Temptation
TTITLE3=Almost blue
TTITLE4=I've changed my address
TTITLE5=Love me like a man
TTITLE6=I'm pulling through
TTITLE7=Black crow
TTITLE8=Narrow daylight
TTITLE9=Abandoned masquerade
TTITLE10=I'm coming through
TTITLE11=Departure bay
EXTD=YEAR: 2004
EXTT0=
EXTT1=
EXTT2=
EXTT3=
EXTT4=
EXTT5=
EXTT6=
EXTT7=
EXTT8=
EXTT9=
EXTT10=
EXTT11=
PLAYORDER=
